{"title":"The Witches (1990) 1080P WEB-DL AAC2 0 H 264","uid":15376195,"size":3645025972,"categoryP":"video","categoryS":"hd___movies","magnet":"?xt=urn:btih:ca107f3eb2390107726a0b78e2e1b3f73041cfb6&amp;dn=The+Witches+%281990%29+1080P+WEB-DL+AAC2+0+H+264&amp;tr=udp%3A%2F%2Ftracker.leechers-paradise.org%3A6969&amp;tr=udp%3A%2F%2Fzer0day.ch%3A1337&amp;tr=udp%3A%2F%2Fopen.demonii.com%3A1337&amp;tr=udp%3A%2F%2Ftracker.coppersurfer.tk%3A6969&amp;tr=udp%3A%2F%2Fexodus.desync.com%3A6969","seeders":12,"leechers":4,"uploader":"jmanwf","files":1,"time":1469191218,"description":"Produced by Jim Henson (&quot;The Muppets&quot;), whose famed Creature Shop provided the amazing special effects, Academy Award-winner Angelica Huston (&quot;The Royal Tenenbaums,&quot; &quot;The Addams Family&quot;) stars in this fanciful and exciting story about a nine-year-old and his grandmother who turn the tables on a witch's plot to turn all the children of Britain into mice. Pia Lindstrom, WNBC-TV, calls it &quot;Marvelous!... A triumph of imagination!&quot; and Entertainment Weekly says &quot;with relish and high comic style, Huston plays the ugliest, wartiest witch imaginable.&quot; Co-starring comedy legend Rowan Atkinson (&quot;Four Weddings and a Funneral,&quot; the &quot;Mr. Bean&quot; series and movies), and Jason Fisher (&quot;Parenthood&quot;).\r\n\r\n\r\n\r\nVideo\r\nID                                       : 2\r\nFormat                                   : AVC\r\nFormat/Info                              : Advanced Video Codec\r\nFormat profile                           :   \r\nFormat settings, CABAC                   : Yes\r\nFormat settings, ReFrames                : 4 frames\r\nCodec ID                                 : V_MPEG4/ISO/AVC\r\nDuration                                 : 1h 31mn\r\nBit rate                                 : 5 179 Kbps\r\nWidth                                    : 1 906 pixels\r\nHeight                                   : 1 080 pixels\r\nDisplay aspect ratio                     : 16:9\r\nFrame rate mode                          : Constant\r\nFrame rate                               : 23.976 fps\r\nColor space                              : YUV\r\nChroma subsampling                       : 4:2:0\r\nBit depth                                : 8 bits\r\nScan type                                : Progressive\r\nBits/(Pixel*Frame)                       : 0.105\r\nStream size                              : 3.31 GiB (98%)\r\nLanguage                                 : English\r\nDefault                                  : Yes\r\nForced                                   : No\r\nColor range                              : Limited\r\nColor primaries                          : BT.709\r\nTransfer characteristics                 : BT.709\r\nMatrix coefficients                      : BT.709\r\n\r\nAudio\r\nID                                       : 1\r\nFormat                                   : AAC\r\nFormat/Info                              : Advanced Audio Codec\r\nFormat profile                           : LC\r\nCodec ID                                 : A_AAC\r\nDuration                                 : 1h 31mn\r\nBit rate                                 : 126 Kbps\r\nChannel(s)                               : 2 channels\r\nChannel positions                        : Front: L R\r\nSampling rate                            : 48.0 KHz\r\nFrame rate                               : 46.875 fps (1024 spf)\r\nCompression mode                         : Lossy\r\nStream size                              : 82.6 MiB (2%)\r\nLanguage                                 : English\r\nDefault                                  : Yes\r\nForced                                   : No\r\n\r\nText\r\nID                                       : 3\r\nFormat                                   : UTF-8\r\nCodec ID                                 : S_TEXT/UTF8\r\nCodec ID/Info                            : UTF-8 Plain Text\r\nDuration                                 : 1h 28mn\r\nBit rate                                 : 56 bps\r\nCount of elements                        : 1681\r\nStream size                              : 36.7 KiB (0%)\r\nLanguage                                 : English\r\nDefault                                  : Yes\r\nForced                                   : No\r\n \nhttps://itunes.apple.com/au/movie/the-witches-1990/id328294686\r\n\r\n\r\n \nhttps://s31.postimg.org/z2cgsd6l7/image.jpg\r\n\r\n\r\n \nhttps://s31.postimg.org/ye87n5x97/image.jpg\r\n\r\n\r\n\r\n\r\n","torrent":{"xt":"urn:btih:ca107f3eb2390107726a0b78e2e1b3f73041cfb6","amp;dn":"The+Witches+%281990%29+1080P+WEB-DL+AAC2+0+H+264","amp;tr":["udp%3A%2F%2Ftracker.leechers-paradise.org%3A6969","udp%3A%2F%2Fzer0day.ch%3A1337","udp%3A%2F%2Fopen.demonii.com%3A1337","udp%3A%2F%2Ftracker.coppersurfer.tk%3A6969","udp%3A%2F%2Fexodus.desync.com%3A6969"],"infoHash":"ca107f3eb2390107726a0b78e2e1b3f73041cfb6","infoHashBuffer":{"type":"Buffer","data":[202,16,127,62,178,57,1,7,114,106,11,120,226,225,179,247,48,65,207,182]},"announce":[],"urlList":[]}}